<svg xmlns="http://www.w3.org/2000/svg" xmlns:xlink="http://www.w3.org/1999/xlink" width="676.901" height="499.352" viewBox="0 0 676.901 499.352">
  <defs>
    <clipPath id="clip-path">
      <rect id="Rectangle_599" data-name="Rectangle 599" width="83.623" height="98.676" rx="2" transform="translate(0 0)" fill="#fff" stroke="#707070" stroke-width="1"/>
    </clipPath>
    <clipPath id="clip-path-2">
      <rect id="Rectangle_599-2" data-name="Rectangle 599" width="63.324" height="83.656" rx="2" transform="translate(0 0)" fill="#fff" stroke="#707070" stroke-width="1"/>
    </clipPath>
  </defs>
  <g id="obj-main" transform="translate(-82.5 116.631)">
    <path id="Rectangle_576" data-name="Rectangle 576" d="M1.166,0H672.734A1.167,1.167,0,0,1,673.9,1.167V2.71a1.167,1.167,0,0,1-1.167,1.167H1.166A1.166,1.166,0,0,1,0,2.711V1.166A1.166,1.166,0,0,1,1.166,0Z" transform="translate(84 377.344)" fill="none" stroke="#233863" stroke-miterlimit="10" stroke-width="3"/>
    <g id="Group_1127" data-name="Group 1127" transform="translate(96.193 -116.631)">
      <g id="Group_1128" data-name="Group 1128" transform="translate(17.659 109.777)">
        <path id="Path_1466" data-name="Path 1466" d="M218.09,338.3a1.216,1.216,0,0,1-1.217-1.217,151.451,151.451,0,0,1,65.033-124.3,1.217,1.217,0,1,1,1.388,2,149.013,149.013,0,0,0-63.988,122.3,1.216,1.216,0,0,1-1.217,1.217" transform="translate(-52.537 -10.593)" fill="#7f8c8d"/>
        <path id="Path_1467" data-name="Path 1467" d="M466.242,325.225a1.216,1.216,0,0,1-1.217-1.217,148.477,148.477,0,0,0-8.44-49.53,1.217,1.217,0,0,1,2.295-.81,150.9,150.9,0,0,1,8.579,50.341,1.216,1.216,0,0,1-1.217,1.217" transform="translate(-0.573 2.481)" fill="#7f8c8d"/>
        <path id="Path_1468" data-name="Path 1468" d="M465.246,280.5a1.217,1.217,0,0,1-1.121-.743,148.618,148.618,0,0,0-56.655-67.356,1.217,1.217,0,1,1,1.319-2.046,151.049,151.049,0,0,1,57.577,68.455,1.217,1.217,0,0,1-1.121,1.69" transform="translate(-11.329 -11.113)" fill="#7f8c8d"/>
        <path id="Path_1469" data-name="Path 1469" d="M279.2,213.474a1.216,1.216,0,0,1-.616-2.267,151.546,151.546,0,0,1,140.347-6.45,1.217,1.217,0,0,1-1.032,2.2,149.109,149.109,0,0,0-138.086,6.346,1.209,1.209,0,0,1-.613.167" transform="translate(-39.287 -15.361)" fill="#7f8c8d"/>
        <path id="Path_1470" data-name="Path 1470" d="M196.14,345.172a1.216,1.216,0,0,1-1.217-1.217,178.14,178.14,0,0,1,106.344-162.98,1.217,1.217,0,0,1,.981,2.227A175.706,175.706,0,0,0,197.357,343.955a1.216,1.216,0,0,1-1.217,1.217" transform="translate(-57.297 -17.465)" fill="#7f8c8d"/>
        <path id="Path_1471" data-name="Path 1471" d="M499.432,341.645a1.216,1.216,0,0,1-1.217-1.217,176.425,176.425,0,0,0-71.093-141.1,1.217,1.217,0,1,1,1.45-1.954,179.6,179.6,0,0,1,52.436,61.7,176.045,176.045,0,0,1,19.64,81.354,1.216,1.216,0,0,1-1.217,1.217" transform="translate(-7.053 -13.939)" fill="#7f8c8d"/>
        <path id="Path_1472" data-name="Path 1472" d="M421.182,194.782a1.2,1.2,0,0,1-.651-.19c-3.6-2.286-7.33-4.469-11.088-6.487a1.216,1.216,0,1,1,1.15-2.144c3.811,2.045,7.593,4.259,11.242,6.577a1.217,1.217,0,0,1-.653,2.244" transform="translate(-10.92 -16.393)" fill="#7f8c8d"/>
        <path id="Path_1473" data-name="Path 1473" d="M427.19,188.042a1.213,1.213,0,0,1-.522-.118,176.191,176.191,0,0,0-131.375-7.678,1.217,1.217,0,0,1-.78-2.3,178.615,178.615,0,0,1,133.2,7.785,1.217,1.217,0,0,1-.522,2.316" transform="translate(-35.881 -20.12)" fill="#7f8c8d"/>
        <path id="Path_1474" data-name="Path 1474" d="M512.952,328.155a1.216,1.216,0,0,1-1.217-1.217,204.837,204.837,0,0,0-10.843-65.988,1.217,1.217,0,1,1,2.3-.781,207.27,207.27,0,0,1,10.972,66.769,1.216,1.216,0,0,1-1.217,1.217" transform="translate(9.035 -0.449)" fill="#7f8c8d"/>
        <path id="Path_1475" data-name="Path 1475" d="M511.022,268.222a1.216,1.216,0,0,1-1.127-.757,205.422,205.422,0,0,0-69.819-88.815,1.218,1.218,0,0,1,1.429-1.973,207.88,207.88,0,0,1,70.644,89.867,1.217,1.217,0,0,1-1.127,1.677" transform="translate(-4.247 -18.424)" fill="#7f8c8d"/>
        <path id="Path_1476" data-name="Path 1476" d="M459.685,177.888a1.217,1.217,0,0,1-.642-.184,205.762,205.762,0,0,0-159.659-24.536,1.217,1.217,0,1,1-.606-2.358A208.211,208.211,0,0,1,460.33,175.638a1.217,1.217,0,0,1-.645,2.25" transform="translate(-34.976 -25.397)" fill="#7f8c8d"/>
        <path id="Path_1477" data-name="Path 1477" d="M266.835,165.439a1.217,1.217,0,0,1-.537-2.31,207.529,207.529,0,0,1,19.53-8.36,1.217,1.217,0,0,1,.842,2.284,204.87,204.87,0,0,0-19.3,8.261,1.217,1.217,0,0,1-.534.124" transform="translate(-41.968 -23.141)" fill="#7f8c8d"/>
        <path id="Path_1478" data-name="Path 1478" d="M171.808,348.067a1.216,1.216,0,0,1-1.217-1.217A207.5,207.5,0,0,1,273.264,167.684a1.216,1.216,0,0,1,1.231,2.1A206.117,206.117,0,0,0,173.025,346.85a1.216,1.216,0,0,1-1.217,1.217" transform="translate(-62.573 -20.361)" fill="#7f8c8d"/>
        <path id="Path_1479" data-name="Path 1479" d="M154.018,341.511a1.826,1.826,0,0,1-1.825-1.825,229.341,229.341,0,0,1,72.7-167.793,231.737,231.737,0,0,1,26.171-21.179,1.825,1.825,0,1,1,2.084,3,226.581,226.581,0,0,0-97.3,185.975,1.827,1.827,0,0,1-1.825,1.825" transform="translate(-66.563 -24.075)" fill="#7f8c8d"/>
        <path id="Path_1480" data-name="Path 1480" d="M531.321,321.633a1.826,1.826,0,0,1-1.825-1.825,225.781,225.781,0,0,0-12.835-75.318,1.826,1.826,0,1,1,3.443-1.214,229.425,229.425,0,0,1,13.042,76.532,1.827,1.827,0,0,1-1.825,1.825" transform="translate(12.446 -4.197)" fill="#7f8c8d"/>
        <path id="Path_1481" data-name="Path 1481" d="M529.807,253.637a1.826,1.826,0,0,1-1.683-1.116,225.981,225.981,0,0,0-86.15-102.42,1.825,1.825,0,0,1,1.977-3.069A229.622,229.622,0,0,1,531.487,251.1a1.825,1.825,0,0,1-1.681,2.535" transform="translate(-3.908 -24.866)" fill="#7f8c8d"/>
        <path id="Path_1482" data-name="Path 1482" d="M246.931,151.72a1.825,1.825,0,0,1-.924-3.4,230.394,230.394,0,0,1,213.371-9.807,1.826,1.826,0,0,1-1.548,3.307,226.741,226.741,0,0,0-209.978,9.648,1.811,1.811,0,0,1-.921.251" transform="translate(-46.416 -31.325)" fill="#7f8c8d"/>
        <path id="Path_1483" data-name="Path 1483" d="M120.642,351.96a1.826,1.826,0,0,1-1.825-1.825A270.827,270.827,0,0,1,280.5,102.355a1.825,1.825,0,1,1,1.471,3.341,267.175,267.175,0,0,0-159.5,244.439,1.826,1.826,0,0,1-1.825,1.825" transform="translate(-73.8 -34.524)" fill="#7f8c8d"/>
        <path id="Path_1484" data-name="Path 1484" d="M581.784,346.6a1.826,1.826,0,0,1-1.825-1.825,268.258,268.258,0,0,0-108.1-214.562,1.825,1.825,0,0,1,2.174-2.933,273.042,273.042,0,0,1,79.72,93.81A267.654,267.654,0,0,1,583.61,344.775a1.826,1.826,0,0,1-1.825,1.825" transform="translate(2.594 -29.164)" fill="#7f8c8d"/>
        <path id="Path_1485" data-name="Path 1485" d="M462.81,123.3a1.817,1.817,0,0,1-.978-.285c-5.483-3.483-11.156-6.8-16.861-9.864a1.825,1.825,0,0,1,1.726-3.216c5.785,3.1,11.534,6.468,17.094,10a1.825,1.825,0,0,1-.981,3.366" transform="translate(-3.285 -32.894)" fill="#7f8c8d"/>
        <path id="Path_1486" data-name="Path 1486" d="M471.945,113.052a1.816,1.816,0,0,1-.782-.178A267.917,267.917,0,0,0,271.392,101.2a1.825,1.825,0,1,1-1.167-3.458,271.559,271.559,0,0,1,202.5,11.836,1.826,1.826,0,0,1-.785,3.474" transform="translate(-41.238 -38.562)" fill="#7f8c8d"/>
        <path id="Path_1487" data-name="Path 1487" d="M602.34,326.088a1.826,1.826,0,0,1-1.825-1.825,311.5,311.5,0,0,0-16.486-100.338,1.825,1.825,0,1,1,3.456-1.174,315.11,315.11,0,0,1,16.681,101.512,1.826,1.826,0,0,1-1.825,1.825" transform="translate(27.056 -8.652)" fill="#7f8c8d"/>
        <path id="Path_1488" data-name="Path 1488" d="M599.408,234.962a1.827,1.827,0,0,1-1.692-1.135A312.38,312.38,0,0,0,491.553,98.777a1.825,1.825,0,1,1,2.142-2.956A316.048,316.048,0,0,1,601.1,232.448a1.822,1.822,0,0,1-1,2.378,1.785,1.785,0,0,1-.687.136" transform="translate(6.861 -35.983)" fill="#7f8c8d"/>
        <path id="Path_1489" data-name="Path 1489" d="M521.35,97.615a1.81,1.81,0,0,1-.965-.277,312.905,312.905,0,0,0-242.773-37.31,1.825,1.825,0,1,1-.908-3.535A316.541,316.541,0,0,1,522.318,94.242a1.825,1.825,0,0,1-.967,3.373" transform="translate(-39.861 -46.584)" fill="#7f8c8d"/>
        <path id="Path_1490" data-name="Path 1490" d="M228.133,78.687a1.825,1.825,0,0,1-.8-3.464,315.067,315.067,0,0,1,29.692-12.71,1.825,1.825,0,0,1,1.262,3.425A311.8,311.8,0,0,0,228.934,78.5a1.8,1.8,0,0,1-.8.187" transform="translate(-50.492 -43.154)" fill="#7f8c8d"/>
        <path id="Path_1491" data-name="Path 1491" d="M83.647,356.363a1.826,1.826,0,0,1-1.825-1.825A315.468,315.468,0,0,1,237.92,82.146a1.825,1.825,0,1,1,1.847,3.148C144.6,141.147,85.473,244.315,85.473,354.538a1.826,1.826,0,0,1-1.825,1.825" transform="translate(-81.822 -38.927)" fill="#7f8c8d"/>
      </g>
      <g id="Group_1141" data-name="Group 1141" transform="translate(298.352 317.117)">
        <path id="Path_1492" data-name="Path 1492" d="M366.921,335.249,331.347,326.8a3.142,3.142,0,0,1-2.331-3.783l6.71-28.265a3.141,3.141,0,0,1,3.783-2.332l35.574,8.445a3.142,3.142,0,0,1,2.331,3.783l-6.71,28.265a3.143,3.143,0,0,1-3.783,2.331" transform="translate(-327.104 -290.514)" fill="#c2001a"/>
        <path id="Path_1493" data-name="Path 1493" d="M367.972,337.485a4.94,4.94,0,0,1-1.145-.135h0l-35.576-8.445a4.974,4.974,0,0,1-3.686-5.981l6.711-28.266a4.975,4.975,0,0,1,5.98-3.685l35.576,8.445a4.975,4.975,0,0,1,3.686,5.981L372.8,333.664a4.976,4.976,0,0,1-4.833,3.821m-.3-3.687a1.315,1.315,0,0,0,1.586-.977l6.711-28.265a1.319,1.319,0,0,0-.977-1.587l-35.576-8.444a1.315,1.315,0,0,0-1.586.977l-6.71,28.264a1.319,1.319,0,0,0,.977,1.587l35.576,8.445Z" transform="translate(-327.429 -290.839)"/>
        <path id="Path_1494" data-name="Path 1494" d="M347.791,317.984a2.982,2.982,0,0,1-.619-.067,2.862,2.862,0,0,1-1.814-1.264l-4.472-7.026a1.825,1.825,0,1,1,3.08-1.96l4.052,6.369,15.1-9.735a1.825,1.825,0,0,1,1.977,3.069l-15.752,10.155a2.855,2.855,0,0,1-1.553.46" transform="translate(-324.573 -287.983)" fill="#fff"/>
      </g>
      <g id="Group_1140" data-name="Group 1140" transform="translate(354.94 110.083) rotate(-11)">
        <path id="Path_1495" data-name="Path 1495" d="M43.037,35.139,6.7,39.177A3.142,3.142,0,0,1,3.228,36.4L.02,7.529A3.143,3.143,0,0,1,2.8,4.058L39.135.019A3.144,3.144,0,0,1,42.605,2.8l3.208,28.872a3.141,3.141,0,0,1-2.776,3.47" transform="translate(1.826 1.825)" fill="#518ff5"/>
        <path id="Path_1496" data-name="Path 1496" d="M8.168,42.848a4.971,4.971,0,0,1-4.928-4.42L.031,9.555A4.973,4.973,0,0,1,4.421,4.07L40.758.031a4.971,4.971,0,0,1,5.488,4.388l3.208,28.873a4.973,4.973,0,0,1-4.389,5.486L8.727,42.816a5.13,5.13,0,0,1-.56.032m33.141-39.2a1.178,1.178,0,0,0-.146.009L4.824,7.7A1.317,1.317,0,0,0,3.66,9.152L6.868,38.026a1.3,1.3,0,0,0,.487.882,1.319,1.319,0,0,0,.969.281L44.662,35.15h0a1.318,1.318,0,0,0,1.162-1.455L42.616,4.823a1.319,1.319,0,0,0-1.308-1.172" transform="translate(0 0)"/>
        <path id="Path_1497" data-name="Path 1497" d="M9.041,18.931a2.857,2.857,0,0,1-1.758-.6L.705,13.221a1.826,1.826,0,0,1,2.239-2.884l5.964,4.63L19.842.714a1.826,1.826,0,0,1,2.9,2.222L11.332,17.8a2.861,2.861,0,0,1-1.917,1.1,2.767,2.767,0,0,1-.375.024" transform="translate(14.246 9.924)" fill="#fff"/>
      </g>
      <g id="Group_1131" data-name="Group 1131" transform="translate(120.678 291.825)">
        <path id="Path_1510" data-name="Path 1510" d="M256.365,391.052,198.983,336.04a1.555,1.555,0,0,1-.046-2.2l74.482-77.689a1.555,1.555,0,0,1,2.2-.046L333,311.12a1.555,1.555,0,0,1,.046,2.2l-74.482,77.688a1.555,1.555,0,0,1-2.2.046" transform="translate(-196.68 -253.851)" fill="#288954"/>
        <path id="Path_1511" data-name="Path 1511" d="M257.764,393.634a3.352,3.352,0,0,1-2.336-.939h0l-57.38-55.012a3.379,3.379,0,0,1-.1-4.78l74.48-77.688a3.384,3.384,0,0,1,4.78-.1l57.38,55.012a3.385,3.385,0,0,1,.1,4.78l-74.48,77.687a3.359,3.359,0,0,1-2.369,1.039h-.073m.189-3.575h0Zm-57.184-54.825,56.99,54.637,74.106-77.3-56.99-54.637Z" transform="translate(-197.005 -254.176)"/>
        <path id="Path_1617" data-name="Path 1617" d="M40.3,0H2.812A2.812,2.812,0,0,0,0,2.812V36.553a2.812,2.812,0,0,0,2.812,2.812H40.3a2.812,2.812,0,0,0,2.812-2.812V2.812A2.812,2.812,0,0,0,40.3,0ZM5.624,16.871H18.745v5.624H5.624Zm18.745,0H37.49v5.624H24.369ZM37.49,11.247H24.369V5.624H37.49ZM18.745,5.624v5.624H5.624V5.624ZM5.624,28.118H18.745v5.624H5.624Zm18.745,5.624V28.118H37.49v5.624Z" transform="matrix(0.719, 0.695, -0.695, 0.719, 67.476, 40.595)" fill="#ececec"/>
      </g>
      <path id="Path_1523" data-name="Path 1523" d="M155.2,311.688a1.217,1.217,0,0,1-.46-2.344L188.87,295.4a1.217,1.217,0,0,1,.92,2.254L155.661,311.6a1.2,1.2,0,0,1-.46.09" transform="translate(-48.516 68.453)" fill="#233863"/>
      <g id="Group_1168" data-name="Group 1168" transform="translate(392.909 152.145) rotate(30)">
        <path id="Path_1528" data-name="Path 1528" d="M117.39,102.052,44.219,133.115a1.554,1.554,0,0,1-2.038-.824L.124,33.225a1.554,1.554,0,0,1,.823-2.038L74.119.124a1.553,1.553,0,0,1,2.037.823l42.058,99.067a1.556,1.556,0,0,1-.824,2.038" transform="translate(1.825 1.826)" fill="#c43e1c"/>
        <path id="Path_1529" data-name="Path 1529" d="M45.436,136.892a3.383,3.383,0,0,1-3.11-2.06L.268,35.766a3.384,3.384,0,0,1,1.79-4.431L75.23.27a3.378,3.378,0,0,1,4.431,1.792l42.058,99.065a3.377,3.377,0,0,1-1.791,4.431L46.756,136.623a3.389,3.389,0,0,1-1.32.269m-41.7-102.3,41.846,98.568L118.252,102.3,76.407,3.737Z" transform="translate(0 0)"/>
        <path id="Path_1615" data-name="Path 1615" d="M40.709,20.354A20.354,20.354,0,1,1,20.354,0,20.355,20.355,0,0,1,40.709,20.354Zm0,0" transform="translate(32.566 61.743) rotate(-22)" fill="#ffc295" stroke="#fff" stroke-width="2"/>
        <path id="Path_1616" data-name="Path 1616" d="M25.76,27.338H1.578A1.578,1.578,0,0,1,0,25.761V1.578A1.585,1.585,0,0,1,1.692,0,27.391,27.391,0,0,1,27.335,25.647a1.585,1.585,0,0,1-1.575,1.691Zm0,0" transform="translate(48.823 47.646) rotate(-22)" fill="#ff451b" stroke="#fff" stroke-width="2"/>
      </g>
      <path id="Path_1542" data-name="Path 1542" d="M224.788,311.338a1.18,1.18,0,0,1-.184-.015l-33.278-5.047a1.217,1.217,0,1,1,.366-2.406l33.277,5.049a1.216,1.216,0,0,1-.181,2.419" transform="translate(-40.643 70.307)" fill="#fff"/>
      <g id="Group_1135" data-name="Group 1135" transform="translate(0 269.32)">
        <path id="Path_1507" data-name="Path 1507" d="M278.575,404.087l-130.309.274a18.236,18.236,0,0,1-18.221-18.144l-.179-84.853a18.236,18.236,0,0,1,18.146-18.221l130.309-.274a18.238,18.238,0,0,1,18.221,18.144l.178,84.853a18.236,18.236,0,0,1-18.144,18.221" transform="translate(-113.185 -202.744)" fill="#3d85fd"/>
        <path id="Path_1508" data-name="Path 1508" d="M148.553,406.511a20.031,20.031,0,0,1-20.009-19.966l-.176-84.853a20.029,20.029,0,0,1,19.966-20.05l130.309-.274h.04a20.03,20.03,0,0,1,20.009,19.966l.179,84.854A20.061,20.061,0,0,1,278.9,406.238l-130.309.274Zm130.348-2.1h0Zm-.218-119.393h-.033l-130.309.274a16.376,16.376,0,0,0-16.323,16.392l.176,84.853a16.378,16.378,0,0,0,16.358,16.323h.035l130.309-.274a16.411,16.411,0,0,0,16.323-16.392l-.179-84.853a16.375,16.375,0,0,0-16.358-16.323" transform="translate(-113.51 -203.069)"/>
        <path id="Path_1509" data-name="Path 1509" d="M278.575,404.087l-130.309.274a18.236,18.236,0,0,1-18.221-18.144l-.179-84.853a18.236,18.236,0,0,1,18.146-18.221l130.309-.274a18.238,18.238,0,0,1,18.221,18.144l.178,84.853a18.236,18.236,0,0,1-18.144,18.221" transform="translate(-113.185 -202.744)" fill="#e5c10a"/>
        <path id="Path_1515" data-name="Path 1515" d="M271.635,345.659a1.217,1.217,0,0,1-.842-.338L227.586,303.9a1.217,1.217,0,0,1,1.685-1.757l43.206,41.424a1.217,1.217,0,0,1-.842,2.1" transform="translate(-92.077 -198.639)" fill="#233863"/>
        <g id="Group_1136" data-name="Group 1136" transform="translate(0 2.484)">
          <path id="Path_1517" data-name="Path 1517" d="M239.649,327.579l-73.588,30.062a1.553,1.553,0,0,1-2.026-.851l-40.7-99.631a1.553,1.553,0,0,1,.852-2.026l73.587-30.063a1.556,1.556,0,0,1,2.027.852l40.7,99.631a1.553,1.553,0,0,1-.851,2.026" transform="translate(-121.39 -223.131)" fill="#518ff5"/>
          <path id="Path_1518" data-name="Path 1518" d="M165.8,359.909a3.388,3.388,0,0,1-3.128-2.1l-40.7-99.631a3.379,3.379,0,0,1,1.851-4.407l73.587-30.062a3.384,3.384,0,0,1,4.406,1.85l40.7,99.631a3.385,3.385,0,0,1-1.85,4.406h0l-73.588,30.063a3.383,3.383,0,0,1-1.278.252M125.451,257.045l40.5,99.13,73.087-29.858-40.5-99.13ZM239.974,327.9h0Zm-.691-1.689h0Z" transform="translate(-121.716 -223.456)"/>
          <g id="Group_1161" data-name="Group 1161" transform="matrix(0.921, -0.391, 0.391, 0.921, 16.028, 45.019)">
            <rect id="Rectangle_578" data-name="Rectangle 578" width="55.001" height="5.728" rx="2.864" transform="translate(0 40.128)" fill="#fff"/>
            <rect id="Rectangle_579" data-name="Rectangle 579" width="63.788" height="5.728" rx="2.864" transform="translate(0 57.706)" fill="#fff"/>
            <rect id="Rectangle_580" data-name="Rectangle 580" width="46.213" height="5.728" rx="2.864" transform="translate(0 71.769)" fill="#fff"/>
            <path id="Icon_22_" d="M26.747,20.066,30.417,0h7.648L31.274,32h-8L18.989,13.758,14.791,32H6.813L0,0H7.67l3.67,20.066,1.574-7.183L15.736,0h6.549Z" transform="translate(0 0)" fill="#fff"/>
          </g>
        </g>
        <g id="Group_1137" data-name="Group 1137" transform="translate(75.829 0)">
          <g id="Mask_Group_2" data-name="Mask Group 2" transform="matrix(0.988, 0.152, -0.152, 0.988, 17.63, 1.825)" clip-path="url(#clip-path)">
            <path id="Path_1612" data-name="Path 1612" d="M26.251,72.451l18.313,21.6,20.517,24.206h9.666a9.3,9.3,0,0,0,9.3-9.3V9.3a9.3,9.3,0,0,0-9.3-9.3H9.3A9.3,9.3,0,0,0,0,9.3V94.808L18.948,72.451a4.78,4.78,0,0,1,7.3,0Z" transform="translate(0.134 -18.789)" fill="#dcdcdc"/>
            <path id="Path_1613" data-name="Path 1613" d="M39.484,32.3V23.958L20.61,1.7a4.78,4.78,0,0,0-7.3,0L0,17.393,20.517,41.6h9.666a9.3,9.3,0,0,0,9.3-9.3Z" transform="translate(44.698 57.869)" fill="#bde321"/>
            <path id="Path_1614" data-name="Path 1614" d="M65.081,47.5,44.564,23.3,26.251,1.7a4.78,4.78,0,0,0-7.3,0L0,24.052V38.2a9.3,9.3,0,0,0,9.3,9.3Z" transform="translate(0.134 51.967)" fill="#51ce32"/>
            <circle id="Ellipse_4" data-name="Ellipse 4" cx="7.009" cy="7.009" r="7.009" transform="translate(25.666 26.966)" fill="#ff8a24"/>
          </g>
          <path id="Path_1536" data-name="Path 1536" d="M260.126,354.273a3.332,3.332,0,0,1-.514-.039L181.02,342.311a3.381,3.381,0,0,1-2.834-3.85l16.143-106.405a3.381,3.381,0,0,1,3.848-2.835l78.593,11.925a3.383,3.383,0,0,1,2.835,3.848L263.46,351.4a3.38,3.38,0,0,1-3.334,2.874m-78.29-15.532,78.057,11.842,16.062-105.87L197.9,232.87Z" transform="translate(-178.147 -229.182)"/>
        </g>
        <path id="Path_1516" data-name="Path 1516" d="M260.061,357.732a1.217,1.217,0,0,1-.842-.338L216.012,315.97a1.217,1.217,0,1,1,1.685-1.757L260.9,355.637a1.217,1.217,0,0,1-.842,2.1" transform="translate(-94.586 -196.021)" fill="#233863"/>
        <path id="Path_1543" data-name="Path 1543" d="M283.39,416.531l-139.936.295a13.41,13.41,0,0,1-13.4-13.343l-.2-94.478a13.408,13.408,0,0,1,13.341-13.4l139.935-.294a13.408,13.408,0,0,1,13.4,13.341l.2,94.479a13.409,13.409,0,0,1-13.341,13.4" transform="translate(-113.186 -200.046)" fill="#fff"/>
        <path id="Path_1544" data-name="Path 1544" d="M143.642,418.258A14.624,14.624,0,0,1,129.057,403.7l-.2-94.479a14.626,14.626,0,0,1,14.556-14.617l139.936-.293h.03a14.6,14.6,0,0,1,14.586,14.556l.2,94.479a14.6,14.6,0,0,1-14.557,14.615v0l-139.934.295ZM283.381,296.747h-.026l-139.935.293a12.192,12.192,0,0,0-12.127,12.178l.2,94.479a12.19,12.19,0,0,0,12.151,12.127h.027L283.6,415.53a12.166,12.166,0,0,0,12.127-12.178l-.2-94.478a12.167,12.167,0,0,0-12.153-12.127" transform="translate(-113.403 -200.263)"/>
        <path id="Path_1545" data-name="Path 1545" d="M284.533,276.632l-35.3.074a11.934,11.934,0,0,0-11.874,11.924l.035,16.89-89.4.189a18.236,18.236,0,0,0-18.146,18.221l.179,84.851a18.236,18.236,0,0,0,18.221,18.146l130.309-.274a18.237,18.237,0,0,0,18.144-18.221l-.174-83.115,0-1.738-.074-35.073a11.934,11.934,0,0,0-11.924-11.874" transform="translate(-113.187 -204.097)" fill="#e5c10a"/>
        <path id="Path_1546" data-name="Path 1546" d="M148.544,429.077a20.034,20.034,0,0,1-20.01-19.966l-.178-84.854a20.029,20.029,0,0,1,19.966-20.049l87.574-.185-.033-15.066a13.76,13.76,0,0,1,13.7-13.751l35.3-.074h.03a13.74,13.74,0,0,1,13.724,13.7l.252,119.926A20.031,20.031,0,0,1,278.895,428.8l-130.31.275ZM284.862,278.782l-35.3.074a10.108,10.108,0,0,0-10.052,10.095l.036,16.89a1.826,1.826,0,0,1-1.822,1.829l-89.4.189a16.374,16.374,0,0,0-16.323,16.391l.178,84.854a16.378,16.378,0,0,0,16.359,16.323h.033l130.31-.275a16.375,16.375,0,0,0,16.323-16.391l-.252-119.926a10.086,10.086,0,0,0-10.073-10.052Zm0-1.825h0Z" transform="translate(-113.512 -204.422)"/>
        <path id="Path_1547" data-name="Path 1547" d="M280.624,287.754l-31.581.067a10.679,10.679,0,0,0-10.624,10.67l.032,15.116-79.989.168a16.319,16.319,0,0,0-16.235,16.307l.159,75.937a16.32,16.32,0,0,0,16.3,16.239l116.594-.246a16.318,16.318,0,0,0,16.235-16.306l-.156-74.382,0-1.556-.066-31.387a10.68,10.68,0,0,0-10.669-10.627" transform="translate(-110.505 -201.685)" fill="#fff" opacity="0.15"/>
        <path id="Path_1549" data-name="Path 1549" d="M264.374,307.408a1.216,1.216,0,0,1-1.217-1.217V290.017a5.165,5.165,0,0,0-5.367-4.922H246a1.217,1.217,0,1,1,0-2.434H257.79a7.6,7.6,0,0,1,7.8,7.356v16.174a1.216,1.216,0,0,1-1.217,1.217" transform="translate(-88.265 -202.789)" fill="#fff"/>
        <g id="Group_1162" data-name="Group 1162" transform="translate(51.405 147.683)">
          <path id="Path_1548" data-name="Path 1548" d="M258.443,386.026a5.369,5.369,0,1,1-5.369-5.369,5.369,5.369,0,0,1,5.369,5.369" transform="translate(-161.035 -358.306)" fill="#fff"/>
          <rect id="Rectangle_600" data-name="Rectangle 600" width="95.644" height="9.925" rx="4.962" transform="translate(1.764)" fill="#fff"/>
          <rect id="Rectangle_601" data-name="Rectangle 601" width="80.069" height="9.925" rx="4.962" transform="translate(0 23.165)" fill="#fff"/>
        </g>
      </g>
      <g id="Group_1130" data-name="Group 1130" transform="translate(478.365 339.207)">
        <path id="Path_1553" data-name="Path 1553" d="M555.542,404.087l-130.309.274a18.236,18.236,0,0,1-18.221-18.144l-.179-84.853a18.236,18.236,0,0,1,18.145-18.221l130.309-.274a18.238,18.238,0,0,1,18.221,18.144l.178,84.853a18.236,18.236,0,0,1-18.144,18.221" transform="translate(-404.997 -273.454)" fill="#3d85fd"/>
        <path id="Path_1554" data-name="Path 1554" d="M425.518,406.511a20.063,20.063,0,0,1-20.007-19.966l-.178-84.853a20.031,20.031,0,0,1,19.966-20.05l130.31-.274h.04a20.032,20.032,0,0,1,20.009,19.966l.179,84.854a20.03,20.03,0,0,1-19.966,20.049l-130.31.274Zm130.349-2.1h0Zm-.218-119.393h-.033l-130.31.274a16.377,16.377,0,0,0-16.323,16.392l.178,84.853a16.411,16.411,0,0,0,16.357,16.323h.035l130.31-.274a16.411,16.411,0,0,0,16.323-16.392l-.179-84.853a16.377,16.377,0,0,0-16.358-16.323" transform="translate(-405.322 -273.78)" fill="#233863"/>
        <path id="Path_1555" data-name="Path 1555" d="M555.542,404.087l-130.309.274a18.236,18.236,0,0,1-18.221-18.144l-.179-84.853a18.236,18.236,0,0,1,18.145-18.221l130.309-.274a18.238,18.238,0,0,1,18.221,18.144l.178,84.853a18.236,18.236,0,0,1-18.144,18.221" transform="translate(-404.997 -273.454)" fill="#ffb44f"/>
        <path id="Path_1556" data-name="Path 1556" d="M425.518,406.511a20.063,20.063,0,0,1-20.007-19.966l-.178-84.853a20.031,20.031,0,0,1,19.966-20.05l130.31-.274h.04a20.032,20.032,0,0,1,20.009,19.966l.179,84.854a20.03,20.03,0,0,1-19.966,20.049l-130.31.274Zm130.349-2.1h0Zm-.218-119.393h-.033l-130.31.274a16.377,16.377,0,0,0-16.323,16.392l.178,84.853a16.411,16.411,0,0,0,16.357,16.323h.035l130.31-.274a16.411,16.411,0,0,0,16.323-16.392l-.179-84.853a16.377,16.377,0,0,0-16.358-16.323" transform="translate(-405.322 -273.78)"/>
        <path id="Path_1557" data-name="Path 1557" d="M555.542,404.087l-130.309.274a18.236,18.236,0,0,1-18.221-18.144l-.179-84.853a18.236,18.236,0,0,1,18.145-18.221l130.309-.274a18.238,18.238,0,0,1,18.221,18.144l.178,84.853a18.236,18.236,0,0,1-18.144,18.221" transform="translate(-404.997 -273.454)" fill="#b03340"/>
        <path id="Path_1558" data-name="Path 1558" d="M560.356,410.3l-139.935.293a13.408,13.408,0,0,1-13.4-13.341l-.2-94.478a13.41,13.41,0,0,1,13.341-13.4l139.936-.293a13.409,13.409,0,0,1,13.4,13.341l.2,94.479a13.408,13.408,0,0,1-13.341,13.4" transform="translate(-404.998 -272.106)" fill="#fff"/>
        <path id="Path_1559" data-name="Path 1559" d="M420.608,412.032a14.6,14.6,0,0,1-14.585-14.556l-.2-94.478a14.6,14.6,0,0,1,14.556-14.618l139.935-.293h.03a14.6,14.6,0,0,1,14.586,14.556l.2,94.478a14.6,14.6,0,0,1-14.556,14.618l-139.935.293ZM560.571,409.3l0,1.217,0-1.217A12.167,12.167,0,0,0,572.7,397.126l-.2-94.478a12.169,12.169,0,0,0-12.153-12.127h-.025l-139.935.293a12.166,12.166,0,0,0-12.127,12.179l.2,94.478A12.167,12.167,0,0,0,420.608,409.6h.027Z" transform="translate(-405.215 -272.323)"/>
        <path id="Path_1560" data-name="Path 1560" d="M560.356,416.531l-139.935.295a13.41,13.41,0,0,1-13.4-13.343l-.2-94.478a13.408,13.408,0,0,1,13.341-13.4l139.936-.294a13.408,13.408,0,0,1,13.4,13.341l.2,94.479a13.409,13.409,0,0,1-13.341,13.4" transform="translate(-404.998 -270.756)" fill="#fff"/>
        <path id="Path_1561" data-name="Path 1561" d="M420.609,418.258A14.6,14.6,0,0,1,406.024,403.7l-.2-94.479a14.627,14.627,0,0,1,14.556-14.617l139.935-.293h.03a14.6,14.6,0,0,1,14.585,14.556l.2,94.479a14.6,14.6,0,0,1-14.556,14.615v0l-139.935.295ZM560.348,296.747h-.027l-139.935.293a12.192,12.192,0,0,0-12.126,12.178l.2,94.479a12.166,12.166,0,0,0,12.151,12.127h.027l139.935-.294A12.165,12.165,0,0,0,572.7,403.352l-.2-94.478a12.167,12.167,0,0,0-12.151-12.127" transform="translate(-405.215 -270.973)"/>
        <path id="Path_1562" data-name="Path 1562" d="M561.5,276.632l-35.3.074a11.933,11.933,0,0,0-11.874,11.924l.035,16.89-89.4.189a18.234,18.234,0,0,0-18.143,18.221L407,408.781a18.236,18.236,0,0,0,18.221,18.146l130.308-.274a18.238,18.238,0,0,0,18.146-18.221l-.175-83.115,0-1.738-.075-35.073A11.933,11.933,0,0,0,561.5,276.632" transform="translate(-404.999 -274.807)" fill="#b03340"/>
        <path id="Path_1563" data-name="Path 1563" d="M425.511,429.077a20.031,20.031,0,0,1-20.01-19.966l-.178-84.854a20.03,20.03,0,0,1,19.966-20.049l87.572-.185-.032-15.066a13.76,13.76,0,0,1,13.7-13.751l35.3-.074h.029a13.758,13.758,0,0,1,13.724,13.7l.252,119.926A20.058,20.058,0,0,1,555.861,428.8l-130.309.275ZM561.829,278.782l-35.3.074a10.106,10.106,0,0,0-10.052,10.095l.035,16.89a1.825,1.825,0,0,1-1.822,1.829l-89.4.189a16.374,16.374,0,0,0-16.323,16.391l.178,84.854a16.376,16.376,0,0,0,16.359,16.323h.033l130.309-.275a16.411,16.411,0,0,0,16.323-16.391l-.252-119.926a10.111,10.111,0,0,0-10.073-10.052Zm0-1.825h0Z" transform="translate(-405.324 -275.132)"/>
        <path id="Path_1564" data-name="Path 1564" d="M557.309,287.754l-31.581.067a10.679,10.679,0,0,0-10.624,10.67l.032,15.116-79.989.168a16.319,16.319,0,0,0-16.235,16.307l.159,75.937a16.32,16.32,0,0,0,16.3,16.239l116.594-.246A16.318,16.318,0,0,0,568.2,405.706l-.156-74.382,0-1.556-.066-31.387a10.68,10.68,0,0,0-10.669-10.627" transform="translate(-402.378 -272.395)" fill="#ce4351"/>
        <path id="Path_1566" data-name="Path 1566" d="M541.058,307.408a1.216,1.216,0,0,1-1.217-1.217V290.017a5.165,5.165,0,0,0-5.366-4.922H522.689a1.217,1.217,0,1,1,0-2.434h11.786a7.6,7.6,0,0,1,7.8,7.356v16.174a1.216,1.216,0,0,1-1.217,1.217" transform="translate(-380.138 -273.499)" fill="#fff"/>
        <g id="Group_1163" data-name="Group 1163" transform="translate(36.559 76.973)">
          <path id="Path_1548-2" data-name="Path 1548" d="M258.443,386.026a5.369,5.369,0,1,1-5.369-5.369,5.369,5.369,0,0,1,5.369,5.369" transform="translate(-161.035 -358.306)" fill="#fff"/>
          <rect id="Rectangle_600-2" data-name="Rectangle 600" width="95.644" height="9.925" rx="4.962" transform="translate(1.764)" fill="#fff"/>
          <rect id="Rectangle_601-2" data-name="Rectangle 601" width="80.069" height="9.925" rx="4.962" transform="translate(0 23.165)" fill="#fff"/>
        </g>
      </g>
      <g id="Group_1139" data-name="Group 1139" transform="translate(478.365 179.8)">
        <path id="Path_1570" data-name="Path 1570" d="M478.048,289.811l-60.116-43.329a1.554,1.554,0,0,1-.353-2.17l58.705-81.449a1.554,1.554,0,0,1,2.17-.352l60.115,43.329a1.554,1.554,0,0,1,.353,2.17l-58.705,81.449a1.554,1.554,0,0,1-2.17.352" transform="translate(-406.977 -146.184)" fill="#b03340"/>
        <path id="Path_1571" data-name="Path 1571" d="M479.274,292.255a3.351,3.351,0,0,1-1.969-.639l-60.117-43.328a3.387,3.387,0,0,1-.766-4.718l58.707-81.449a3.378,3.378,0,0,1,4.717-.767l60.116,43.329a3.386,3.386,0,0,1,.768,4.716l-58.706,81.45a3.4,3.4,0,0,1-2.749,1.4m.165-3.6Zm-59.9-43.171L479.22,288.5l58.388-81.01-59.675-43.012Z" transform="translate(-407.302 -146.51)" fill="#233863"/>
        <path id="Path_1572" data-name="Path 1572" d="M478.048,289.811l-60.116-43.329a1.554,1.554,0,0,1-.353-2.17l58.705-81.449a1.554,1.554,0,0,1,2.17-.352l60.115,43.329a1.554,1.554,0,0,1,.353,2.17l-58.705,81.449a1.554,1.554,0,0,1-2.17.352" transform="translate(-406.977 -148.01)" fill="#b03340"/>
        <path id="Path_1573" data-name="Path 1573" d="M479.274,292.255a3.351,3.351,0,0,1-1.969-.639l-60.117-43.328a3.387,3.387,0,0,1-.766-4.718l58.707-81.449a3.378,3.378,0,0,1,4.717-.767l60.116,43.329a3.386,3.386,0,0,1,.768,4.716l-58.706,81.45a3.4,3.4,0,0,1-2.749,1.4m.165-3.6Zm-59.9-43.171L479.22,288.5l58.388-81.01-59.675-43.012Z" transform="translate(-407.302 -146.51)"/>
        <path id="Path_1576" data-name="Path 1576" d="M485.534,237.418a1.215,1.215,0,0,1-.711-.228l-18.041-13.006a1.217,1.217,0,1,1,1.424-1.974l18.041,13a1.216,1.216,0,0,1-.713,2.2" transform="translate(-396.353 -133.225)" fill="#ffb44f"/>
        <path id="Path_1577" data-name="Path 1577" d="M456.062,216.175a1.21,1.21,0,0,1-.711-.23l-11.043-7.959a1.217,1.217,0,1,1,1.424-1.974l11.043,7.959a1.217,1.217,0,0,1-.713,2.2" transform="translate(-401.227 -136.738)" fill="#ffb44f"/>
        <path id="Path_1578" data-name="Path 1578" d="M465.009,237.283a1.218,1.218,0,0,1-.711-.23L436.34,216.9a1.217,1.217,0,0,1,1.424-1.974l27.958,20.15a1.217,1.217,0,0,1-.713,2.2" transform="translate(-402.955 -134.805)" fill="#233863"/>
        <path id="Path_1579" data-name="Path 1579" d="M485.5,282.534l-74.192-28.54a1.555,1.555,0,0,1-.893-2.009l38.641-100.448a1.554,1.554,0,0,1,2.009-.893l74.192,28.54a1.555,1.555,0,0,1,.892,2.009l-38.64,100.449a1.555,1.555,0,0,1-2.009.892" transform="translate(-408.489 -148.717)" fill="#fff"/>
        <path id="Path_1580" data-name="Path 1580" d="M486.381,284.788a3.38,3.38,0,0,1-1.21-.224l-74.191-28.54a3.384,3.384,0,0,1-1.941-4.37l38.638-100.448a3.387,3.387,0,0,1,4.367-1.941l74.193,28.54a3.385,3.385,0,0,1,1.941,4.367L489.54,282.622a3.388,3.388,0,0,1-3.159,2.166m-73.838-32.075,73.687,28.346,38.445-99.944L450.99,152.77Z" transform="translate(-408.814 -149.042)" fill="#233863"/>
        <path id="Path_1581" data-name="Path 1581" d="M485.5,282.534l-74.192-28.54a1.555,1.555,0,0,1-.893-2.009l38.641-100.448a1.554,1.554,0,0,1,2.009-.893l74.192,28.54a1.555,1.555,0,0,1,.892,2.009l-38.64,100.449a1.555,1.555,0,0,1-2.009.892" transform="translate(-408.489 -148.717)" fill="#fff"/>
        <path id="Path_1582" data-name="Path 1582" d="M486.381,284.788a3.38,3.38,0,0,1-1.21-.224l-74.191-28.54a3.384,3.384,0,0,1-1.941-4.37l38.638-100.448a3.387,3.387,0,0,1,4.367-1.941l74.193,28.54a3.385,3.385,0,0,1,1.941,4.367L489.54,282.622a3.388,3.388,0,0,1-3.159,2.166m-73.838-32.075,73.687,28.346,38.445-99.944L450.99,152.77Z" transform="translate(-408.814 -149.042)"/>
        <g id="Group_1165" data-name="Group 1165" transform="matrix(0.934, 0.358, -0.358, 0.934, 44.742, 17.228)">
          <g id="Group_1164" data-name="Group 1164" transform="translate(0 31.132)">
            <rect id="Rectangle_593" data-name="Rectangle 593" width="62.015" height="3.344" rx="1.672" transform="translate(0 0)" fill="#ececec"/>
            <rect id="Rectangle_594" data-name="Rectangle 594" width="53.497" height="3.344" rx="1.672" transform="translate(0 6.084)" fill="#ececec"/>
            <rect id="Rectangle_595" data-name="Rectangle 595" width="63.232" height="3.344" rx="1.672" transform="translate(0 13.385)" fill="#ececec"/>
            <rect id="Rectangle_602" data-name="Rectangle 602" width="63.232" height="3.344" rx="1.672" transform="translate(0 25.554)" fill="#ececec"/>
            <rect id="Rectangle_604" data-name="Rectangle 604" width="63.232" height="3.344" rx="1.672" transform="translate(0 38.939)" fill="#ececec"/>
            <rect id="Rectangle_596" data-name="Rectangle 596" width="53.497" height="3.344" rx="1.672" transform="translate(0 19.469)" fill="#ececec"/>
            <rect id="Rectangle_603" data-name="Rectangle 603" width="53.497" height="3.344" rx="1.672" transform="translate(0 32.855)" fill="#ececec"/>
            <rect id="Rectangle_605" data-name="Rectangle 605" width="53.497" height="3.344" rx="1.672" transform="translate(0 46.24)" fill="#ececec"/>
          </g>
          <text id="PDF" transform="translate(0 19)" fill="#c2001a" font-size="22" font-family="Spartan-Bold, Spartan" font-weight="700"><tspan x="0" y="0">PDF</tspan></text>
        </g>
      </g>
      <g id="Group_1170" data-name="Group 1170" transform="translate(38.417 47.335)">
        <path id="Path_1570-2" data-name="Path 1570" d="M50.526,106.1.537,70.069a1.292,1.292,0,0,1-.293-1.8L49.06.537a1.292,1.292,0,0,1,1.8-.292l49.989,36.03a1.292,1.292,0,0,1,.293,1.8L52.33,105.807a1.292,1.292,0,0,1-1.8.292" transform="translate(15.489 73.839) rotate(-45)" fill="#e44d26"/>
        <path id="Path_1571-2" data-name="Path 1571" d="M52.792,109.379a2.786,2.786,0,0,1-1.637-.531L1.165,72.819A2.816,2.816,0,0,1,.529,68.9L49.345,1.168A2.809,2.809,0,0,1,53.267.53l49.989,36.03a2.816,2.816,0,0,1,.639,3.922l-48.817,67.73a2.828,2.828,0,0,1-2.286,1.168m.138-2.993ZM3.123,70.488l49.623,35.767L101.3,38.891,51.676,3.125Z" transform="translate(13.343 73.837) rotate(-45)" fill="#233863"/>
        <path id="Path_1572-2" data-name="Path 1572" d="M50.526,106.1.537,70.069a1.292,1.292,0,0,1-.293-1.8L49.06.537a1.292,1.292,0,0,1,1.8-.292l49.989,36.03a1.292,1.292,0,0,1,.293,1.8L52.33,105.807a1.292,1.292,0,0,1-1.8.292" transform="translate(14.416 72.766) rotate(-45)" fill="#c2001a"/>
        <path id="Path_1573-2" data-name="Path 1573" d="M52.792,109.379a2.786,2.786,0,0,1-1.637-.531L1.165,72.819A2.816,2.816,0,0,1,.529,68.9L49.345,1.168A2.809,2.809,0,0,1,53.267.53l49.989,36.03a2.816,2.816,0,0,1,.639,3.922l-48.817,67.73a2.828,2.828,0,0,1-2.286,1.168m.138-2.993ZM3.123,70.488l49.623,35.767L101.3,38.891,51.676,3.125Z" transform="translate(13.343 73.837) rotate(-45)"/>
        <path id="Path_1576-2" data-name="Path 1576" d="M16.013,12.836a1.011,1.011,0,0,1-.591-.189L.42,1.832A1.012,1.012,0,1,1,1.6.191L16.606,11a1.011,1.011,0,0,1-.593,1.831" transform="translate(93.303 81.546) rotate(-45)" fill="#ffb44f"/>
        <path id="Path_1577-2" data-name="Path 1577" d="M10.194,8.643A1.006,1.006,0,0,1,9.6,8.452L.42,1.833A1.012,1.012,0,1,1,1.6.192l9.183,6.619a1.012,1.012,0,0,1-.593,1.832" transform="translate(65.631 86.036) rotate(-45)" fill="#ffb44f"/>
        <path id="Path_1578-2" data-name="Path 1578" d="M24.259,18.78a1.013,1.013,0,0,1-.591-.191L.42,1.833A1.012,1.012,0,0,1,1.6.192L24.852,16.947a1.012,1.012,0,0,1-.593,1.833" transform="translate(66.31 98.116) rotate(-45)" fill="#233863"/>
        <path id="Path_1579-2" data-name="Path 1579" d="M62.523,109.758.829,86.026a1.293,1.293,0,0,1-.743-1.671L32.218.829A1.292,1.292,0,0,1,33.888.086L95.582,23.818a1.293,1.293,0,0,1,.742,1.671L64.193,109.017a1.293,1.293,0,0,1-1.671.742" transform="translate(2.146 70.473) rotate(-45)" fill="#fff"/>
        <path id="Path_1580-2" data-name="Path 1580" d="M64.5,112.879a2.811,2.811,0,0,1-1.006-.186L1.8,88.961A2.814,2.814,0,0,1,.188,85.327L32.318,1.8A2.816,2.816,0,0,1,35.949.187L97.644,23.919a2.815,2.815,0,0,1,1.614,3.632l-32.13,83.528a2.817,2.817,0,0,1-2.627,1.8M3.1,86.207l61.274,23.571L96.344,26.671,35.071,3.1Z" transform="translate(0 70.473) rotate(-45)" fill="#233863"/>
        <path id="Path_1581-2" data-name="Path 1581" d="M62.523,109.758.829,86.026a1.293,1.293,0,0,1-.743-1.671L32.218.829A1.292,1.292,0,0,1,33.888.086L95.582,23.818a1.293,1.293,0,0,1,.742,1.671L64.193,109.017a1.293,1.293,0,0,1-1.671.742" transform="translate(2.146 70.473) rotate(-45)" fill="#fff"/>
        <path id="Path_1582-2" data-name="Path 1582" d="M64.5,112.879a2.811,2.811,0,0,1-1.006-.186L1.8,88.961A2.814,2.814,0,0,1,.188,85.327L32.318,1.8A2.816,2.816,0,0,1,35.949.187L97.644,23.919a2.815,2.815,0,0,1,1.614,3.632l-32.13,83.528a2.817,2.817,0,0,1-2.627,1.8M3.1,86.207l61.274,23.571L96.344,26.671,35.071,3.1Z" transform="translate(0 70.473) rotate(-45)"/>
        <g id="Group_1165-2" data-name="Group 1165" transform="translate(36.438 54.296) rotate(-24)">
          <g id="Group_1164-2" data-name="Group 1164" transform="translate(0 25.888)">
            <rect id="Rectangle_593-2" data-name="Rectangle 593" width="51.568" height="2.78" rx="1.39" transform="translate(0 0)" fill="#ececec"/>
            <rect id="Rectangle_594-2" data-name="Rectangle 594" width="44.485" height="2.78" rx="1.39" transform="translate(0 5.059)" fill="#ececec"/>
            <rect id="Rectangle_595-2" data-name="Rectangle 595" width="52.58" height="2.78" rx="1.39" transform="translate(0 11.13)" fill="#ececec"/>
            <rect id="Rectangle_602-2" data-name="Rectangle 602" width="52.58" height="2.78" rx="1.39" transform="translate(0 21.249)" fill="#ececec"/>
            <rect id="Rectangle_604-2" data-name="Rectangle 604" width="52.58" height="2.78" rx="1.39" transform="translate(0 32.379)" fill="#ececec"/>
            <rect id="Rectangle_596-2" data-name="Rectangle 596" width="44.485" height="2.78" rx="1.39" transform="translate(0 16.19)" fill="#ececec"/>
            <rect id="Rectangle_603-2" data-name="Rectangle 603" width="44.485" height="2.78" rx="1.39" transform="translate(0 27.32)" fill="#ececec"/>
            <rect id="Rectangle_605-2" data-name="Rectangle 605" width="44.485" height="2.78" rx="1.39" transform="translate(0 38.45)" fill="#ececec"/>
          </g>
          <text id="PDF-2" data-name="PDF" transform="translate(0 15)" fill="#c2001a" font-size="17" font-family="Spartan-Bold, Spartan" font-weight="700"><tspan x="0" y="0">PDF</tspan></text>
        </g>
      </g>
      <g id="Group_1138" data-name="Group 1138" transform="matrix(0.809, -0.588, 0.588, 0.809, 167.504, 174.869)">
        <path id="Path_1588" data-name="Path 1588" d="M89.17,153.764l-87.868-30a1.923,1.923,0,0,1-1.2-2.441L41.083,1.3A1.921,1.921,0,0,1,43.524.1l87.868,30a1.923,1.923,0,0,1,1.2,2.441L91.611,152.566a1.923,1.923,0,0,1-2.441,1.2" transform="translate(1.827 1.826)" fill="#518ff5"/>
        <path id="Path_1589" data-name="Path 1589" d="M91.615,157.519a3.7,3.7,0,0,1-1.207-.2l-87.868-30A3.75,3.75,0,0,1,.2,122.558L41.182,2.538A3.752,3.752,0,0,1,45.942.2l87.866,30a3.745,3.745,0,0,1,2.336,4.759L95.166,154.982a3.755,3.755,0,0,1-3.551,2.537M44.739,3.654a.112.112,0,0,0-.1.064L3.658,123.738a.11.11,0,0,0,.061.124l87.868,30h0a.111.111,0,0,0,.123-.061L132.689,33.783a.108.108,0,0,0-.061-.124l-87.866-30a.085.085,0,0,0-.024,0" transform="translate(0 0)"/>
        <path id="Path_1590" data-name="Path 1590" d="M94.322,137.671,1.771,130.258a1.925,1.925,0,0,1-1.764-2.071L10.131,1.769A1.923,1.923,0,0,1,12.2.006l92.552,7.413a1.925,1.925,0,0,1,1.764,2.071L96.393,135.908a1.923,1.923,0,0,1-2.071,1.763" transform="translate(14.911 9.922)" fill="#fff"/>
        <path id="Path_1591" data-name="Path 1591" d="M96.307,141.327c-.1,0-.2,0-.307-.012L3.45,133.9a3.749,3.749,0,0,1-3.438-4.036L10.138,3.45A3.754,3.754,0,0,1,14.174.012l92.553,7.413a3.752,3.752,0,0,1,3.436,4.034L100.038,137.878a3.749,3.749,0,0,1-3.731,3.45M13.875,3.65a.1.1,0,0,0-.1.091L3.652,130.158a.109.109,0,0,0,.09.106l92.551,7.413c.057-.012.1-.045.106-.09L106.525,11.169a.1.1,0,0,0-.091-.106L13.882,3.65Z" transform="translate(13.087 8.097)"/>
        <line id="Line_1" data-name="Line 1" x2="23.445" y2="1.878" transform="translate(82.663 35.548)" fill="#fff"/>
        <line id="Line_2" data-name="Line 2" x2="23.445" y2="1.878" transform="translate(82.064 43.039)" fill="#fff"/>
        <line id="Line_3" data-name="Line 3" x2="23.445" y2="1.878" transform="translate(27.172 123.571)" fill="#fff"/>
        <line id="Line_4" data-name="Line 4" x2="20.846" y2="1.67" transform="translate(30.799 83.038)" fill="#fff"/>
        <line id="Line_5" data-name="Line 5" x2="35.849" y2="2.872" transform="translate(28.574 110.826)" fill="#fff"/>
        <line id="Line_6" data-name="Line 6" x2="27.14" y2="2.173" transform="translate(29.687 96.932)" fill="#fff"/>
        <line id="Line_7" data-name="Line 7" x2="70.189" y2="5.622" transform="translate(31.714 70.259)" fill="#fff"/>
        <line id="Line_8" data-name="Line 8" x2="33.537" y2="2.687" transform="translate(65.484 99.691)" fill="#fff"/>
        <line id="Line_9" data-name="Line 9" x2="43.01" y2="3.63" transform="translate(59.428 85.146)" fill="#fff"/>
        <g id="Group_1159" data-name="Group 1159" transform="matrix(0.997, 0.074, -0.074, 0.997, 36.093, 33.293)">
          <rect id="Rectangle_578-2" data-name="Rectangle 578" width="60.983" height="6.351" rx="3.176" transform="translate(0 44.493)" fill="#518ff5"/>
          <rect id="Rectangle_579-2" data-name="Rectangle 579" width="70.727" height="6.351" rx="3.176" transform="translate(0 63.983)" fill="#518ff5"/>
          <rect id="Rectangle_580-2" data-name="Rectangle 580" width="51.24" height="6.351" rx="3.176" transform="translate(0 79.575)" fill="#518ff5"/>
          <path id="Icon_22_2" data-name="Icon_22_" d="M29.656,22.248,33.726,0h8.48l-7.53,35.48h-8.87L21.054,15.255,16.4,35.48H7.554L0,0H8.5l4.07,22.248,1.745-7.965L17.448,0h7.261Z" transform="translate(0 0)" fill="#518ff5"/>
        </g>
      </g>
      <g id="Group_1171" data-name="Group 1171" transform="translate(294.84)">
        <g id="Mask_Group_2-2" data-name="Mask Group 2" transform="matrix(0.988, 0.152, -0.152, 0.988, 13.35, 1.382)" clip-path="url(#clip-path-2)">
          <path id="Path_1612-2" data-name="Path 1612" d="M19.879,54.863,33.746,71.22,49.283,89.55H56.6a7.044,7.044,0,0,0,7.043-7.043V7.043A7.044,7.044,0,0,0,56.6,0H7.043A7.044,7.044,0,0,0,0,7.043v64.75l14.349-16.93a3.62,3.62,0,0,1,5.53,0Z" transform="translate(-0.007 -5.942)" fill="#dcdcdc"/>
          <path id="Path_1613-2" data-name="Path 1613" d="M29.9,24.458V18.143L15.607,1.284a3.62,3.62,0,0,0-5.53,0L0,13.171,15.537,31.5h7.319A7.044,7.044,0,0,0,29.9,24.458Z" transform="translate(33.739 52.107)" fill="#bde321"/>
          <path id="Path_1614-2" data-name="Path 1614" d="M49.283,35.97,33.746,17.64,19.879,1.284a3.62,3.62,0,0,0-5.53,0L0,18.213V28.927A7.044,7.044,0,0,0,7.043,35.97Z" transform="translate(-0.007 47.638)" fill="#51ce32"/>
          <circle id="Ellipse_4-2" data-name="Ellipse 4" cx="6.12" cy="6.12" r="6.12" transform="translate(17.166 23.17)" fill="#ff8a24"/>
        </g>
        <path id="Path_1536-2" data-name="Path 1536" d="M240.225,323.908a2.529,2.529,0,0,1-.389-.029l-59.514-9.029a2.56,2.56,0,0,1-2.146-2.916L190.4,231.357a2.56,2.56,0,0,1,2.914-2.147l59.515,9.03a2.561,2.561,0,0,1,2.147,2.914L242.75,321.731a2.559,2.559,0,0,1-2.525,2.176M180.94,312.146l59.109,8.968,12.163-80.17L193.1,231.975Z" transform="translate(-178.147 -229.182)"/>
      </g>
    </g>
    <g id="Group_1173" data-name="Group 1173" transform="matrix(0.407, 0.914, -0.914, 0.407, 622.092, -116.631)">
      <path id="Path_1517-2" data-name="Path 1517" d="M91.642,80.774l-57.92,23.661a1.222,1.222,0,0,1-1.595-.669L.091,25.348a1.223,1.223,0,0,1,.67-1.595L58.681.091a1.225,1.225,0,0,1,1.6.67L92.312,79.18a1.223,1.223,0,0,1-.669,1.595" transform="translate(1.438 1.435)" fill="#518ff5"/>
      <path id="Path_1518-2" data-name="Path 1518" d="M34.7,107.4a2.666,2.666,0,0,1-2.462-1.655L.2,27.327a2.66,2.66,0,0,1,1.457-3.469L59.576.2a2.664,2.664,0,0,1,3.468,1.456L95.08,80.071a2.664,2.664,0,0,1-1.456,3.468h0L35.7,107.2a2.662,2.662,0,0,1-1.006.2M2.94,26.437l31.874,78.024,57.526-23.5L60.465,2.937ZM93.079,82.21h0Zm-.544-1.329h0Z"/>
      <g id="Group_1161-2" data-name="Group 1161" transform="matrix(0.921, -0.391, 0.391, 0.921, 12.615, 35.434)">
        <rect id="Rectangle_578-3" data-name="Rectangle 578" width="43.29" height="4.509" rx="2.254" transform="translate(0 31.584)" fill="#fff"/>
        <rect id="Rectangle_579-3" data-name="Rectangle 579" width="50.207" height="4.509" rx="2.254" transform="translate(0 45.42)" fill="#fff"/>
        <rect id="Rectangle_580-3" data-name="Rectangle 580" width="36.374" height="4.509" rx="2.254" transform="translate(0 56.488)" fill="#fff"/>
        <path id="Icon_22_3" data-name="Icon_22_" d="M21.052,15.793,23.941,0h6.02L24.615,25.187h-6.3L14.946,10.829l-3.3,14.358H5.363L0,0H6.037L8.926,15.793l1.239-5.654L12.386,0H17.54Z" transform="translate(0 0)" fill="#fff"/>
      </g>
    </g>
  </g>
</svg>
