<svg id="ic-url" xmlns="http://www.w3.org/2000/svg" width="25.92" height="25.914" viewBox="0 0 25.92 25.914">
  <path id="Path_1620" data-name="Path 1620" d="M13.952,17.95,9.986,21.916h0a4.207,4.207,0,0,1-5.949-5.949h0L8,12a1.4,1.4,0,0,0-1.983-1.983L2.053,13.984h0A7.011,7.011,0,0,0,11.969,23.9h0l3.966-3.966a1.4,1.4,0,0,0-1.983-1.983ZM25.92,7.044A7.011,7.011,0,0,0,13.952,2.086h0L9.986,6.052a1.4,1.4,0,1,0,1.983,1.983L15.934,4.07h0a4.207,4.207,0,0,1,5.949,5.949h0l-3.966,3.966A1.4,1.4,0,1,0,19.9,15.967L23.867,12h0A6.965,6.965,0,0,0,25.92,7.044Z" transform="translate(0 -0.036)" fill="#c83241"/>
  <path id="Path_1621" data-name="Path 1621" d="M81.624,91.539a1.4,1.4,0,0,0,1.983,0l7.932-7.932a1.4,1.4,0,0,0-1.983-1.983l-7.932,7.932A1.4,1.4,0,0,0,81.624,91.539Z" transform="translate(-73.622 -73.625)" fill="#c83241"/>
</svg>
